<svg class="main-svg" xmlns="http://www.w3.org/2000/svg" xmlns:xlink="http://www.w3.org/1999/xlink" width="2200" height="1000" style="" viewBox="0 0 1100 500"><rect x="0" y="0" width="1100" height="500" style="fill: rgb(255, 255, 255); fill-opacity: 1;"/><defs id="defs-fda746"><g class="clips"><clipPath id="clipfda746xyplot" class="plotclip"><rect width="1006" height="385"/></clipPath><clipPath class="axesclip" id="clipfda746x"><rect x="68" y="0" width="1006" height="500"/></clipPath><clipPath class="axesclip" id="clipfda746y"><rect x="0" y="50" width="1100" height="385"/></clipPath><clipPath class="axesclip" id="clipfda746xy"><rect x="68" y="50" width="1006" height="385"/></clipPath></g><g class="gradients"/><g class="patterns"/></defs><g class="bglayer"/><g class="layer-below"><g class="imagelayer"/><g class="shapelayer"/></g><g class="cartesianlayer"><g class="subplot xy"><g class="layer-subplot"><g class="shapelayer"/><g class="imagelayer"/></g><g class="minor-gridlayer"><g class="x"/><g class="y"/></g><g class="gridlayer"><g class="x"><path class="xgrid crisp" transform="translate(269.2,0)" d="M0,50v385" style="stroke: rgb(0, 0, 0); stroke-opacity: 0.05; stroke-width: 1px;"/><path class="xgrid crisp" transform="translate(470.4,0)" d="M0,50v385" style="stroke: rgb(0, 0, 0); stroke-opacity: 0.05; stroke-width: 1px;"/><path class="xgrid crisp" transform="translate(671.6,0)" d="M0,50v385" style="stroke: rgb(0, 0, 0); stroke-opacity: 0.05; stroke-width: 1px;"/><path class="xgrid crisp" transform="translate(872.8,0)" d="M0,50v385" style="stroke: rgb(0, 0, 0); stroke-opacity: 0.05; stroke-width: 1px;"/></g><g class="y"><path class="ygrid crisp" transform="translate(0,361.61)" d="M68,0h1006" style="stroke: rgb(0, 0, 0); stroke-opacity: 0.05; stroke-width: 1px;"/><path class="ygrid crisp" transform="translate(0,288.22)" d="M68,0h1006" style="stroke: rgb(0, 0, 0); stroke-opacity: 0.05; stroke-width: 1px;"/><path class="ygrid crisp" transform="translate(0,214.82)" d="M68,0h1006" style="stroke: rgb(0, 0, 0); stroke-opacity: 0.05; stroke-width: 1px;"/><path class="ygrid crisp" transform="translate(0,141.43)" d="M68,0h1006" style="stroke: rgb(0, 0, 0); stroke-opacity: 0.05; stroke-width: 1px;"/><path class="ygrid crisp" transform="translate(0,68.03999999999999)" d="M68,0h1006" style="stroke: rgb(0, 0, 0); stroke-opacity: 0.05; stroke-width: 1px;"/></g></g><g class="zerolinelayer"><path class="xzl zl crisp" transform="translate(68,0)" d="M0,50v385" style="stroke: rgb(0, 0, 0); stroke-opacity: 0.05; stroke-width: 2px;"/><path class="yzl zl crisp" transform="translate(0,435)" d="M68,0h1006" style="stroke: rgb(0, 0, 0); stroke-opacity: 0.05; stroke-width: 2px;"/></g><g class="layer-between"><g class="shapelayer"/><g class="imagelayer"/></g><path class="xlines-below"/><path class="ylines-below"/><g class="overlines-below"/><g class="xaxislayer-below"/><g class="yaxislayer-below"/><g class="overaxes-below"/><g class="overplot"><g class="xy" transform="translate(68,50)" clip-path="url(#clipfda746xyplot)"><g class="scatterlayer mlayer"><g class="trace scatter tracebe1c4f" style="stroke-miterlimit: 2; opacity: 1;"><g class="fills"/><g class="errorbars"/><g class="lines"><path class="js-line" d="M0,385L150.9,384.42L160.96,384.18L171.02,383.05L181.08,381.07L191.14,378.76L201.2,374.55L211.26,369.52L221.32,363.17L231.38,352.91L241.44,338.54L251.5,320.17L261.56,303.48L271.62,281.93L281.68,255.7L291.74,232.85L301.8,215.14L311.86,192.71L321.92,162.71L331.98,132.61L342.04,109.04L352.1,88.86L362.16,65.74L382.28,39.18L392.34,26.1L402.4,23.98L412.46,27.55L422.52,25.16L432.58,19.25L442.64,21.72L452.7,19.83L462.76,19.58L472.82,26.65L482.88,37.18L492.94,43.42L503,41.14L513.06,47.62L523.12,56.75L533.18,64.31L543.24,65.71L553.3,62.42L563.36,53.45L573.42,38.3L583.48,34.48L593.54,34.01L603.6,28.38L613.66,24.39L623.72,24.06L633.78,27.17L643.84,29.29L653.9,38.99L663.96,60.13L674.02,85.65L694.14,146.33L704.2,179.62L714.26,212.72L724.32,242.2L744.44,296.8L754.5,317.45L764.56,332.73L774.62,345.02L784.68,354.21L794.74,359.38L804.8,362.13L814.86,365.7L834.98,375.16L845.04,378.9L855.1,380.57L865.16,380.88L905.4,383.71L915.46,383.93L1006,385" style="vector-effect: none; fill: none; stroke: rgb(217, 83, 79); stroke-opacity: 1; stroke-width: 2px; opacity: 1;"/></g><g class="points"/><g class="text"/></g><g class="trace scatter tracef6fdc0" style="stroke-miterlimit: 2; opacity: 1;"><g class="fills"/><g class="errorbars"/><g class="lines"><path class="js-line" d="M0,385L130.78,384.53L140.84,384.12L160.96,382.17L171.02,379.12L191.14,370.95L201.2,364.33L221.32,342.77L231.38,326.8L251.5,282.32L261.56,258.56L291.74,168.97L301.8,135.84L311.86,112.61L321.92,93.56L331.98,74.45L342.04,58.17L352.1,49.51L362.16,46.1L372.22,35.38L382.28,34.59L392.34,39.56L402.4,38.05L412.46,35.24L422.52,35.05L432.58,36.54L442.64,36.65L452.7,36.92L462.76,34.42L482.88,20.84L492.94,26.69L503,30.71L513.06,36.48L523.12,56.88L533.18,68.76L553.3,68.24L563.36,66.2L573.42,65.51L583.48,62.24L593.54,63.7L603.6,69.42L623.72,70.3L633.78,77.64L643.84,91.11L653.9,106.01L674.02,126.74L684.08,150.38L714.26,243.5L724.32,269.89L734.38,289.02L744.44,304.48L764.56,338.43L774.62,349.78L784.68,355.67L794.74,360.28L804.8,366.47L814.86,371.36L824.92,374.44L834.98,376.31L865.16,381.43L875.22,382.47L905.4,384.23L915.46,384.34L1006,385" style="vector-effect: none; fill: none; stroke: rgb(240, 173, 78); stroke-opacity: 1; stroke-width: 2px; opacity: 1;"/></g><g class="points"/><g class="text"/></g><g class="trace scatter tracef826dc" style="stroke-miterlimit: 2; opacity: 1;"><g class="fills"/><g class="errorbars"/><g class="lines"><path class="js-line" d="M0,385L150.9,384.42L160.96,384.18L171.02,383.05L181.08,381.07L191.14,378.76L201.2,374.55L211.26,369.52L221.32,363.17L231.38,352.91L241.44,338.54L251.5,320.17L261.56,303.48L271.62,281.93L281.68,255.7L291.74,232.85L301.8,215.14L311.86,192.71L321.92,162.71L331.98,132.61L342.04,109.04L352.1,88.86L362.16,65.74L382.28,39.18L392.34,26.1L402.4,23.98L412.46,27.55L422.52,25.16L432.58,19.25L442.64,21.72L452.7,19.83L462.76,19.58L472.82,26.65L482.88,37.18L492.94,43.42L503,41.14L513.06,47.62L523.12,56.75L533.18,64.31L543.24,65.71L553.3,62.42L563.36,53.45L573.42,38.3L583.48,34.48L593.54,34.01L603.6,28.38L613.66,24.39L623.72,24.06L633.78,27.17L643.84,29.29L653.9,38.99L663.96,60.13L674.02,85.65L694.14,146.33L704.2,179.62L714.26,212.72L724.32,242.2L744.44,296.8L754.5,317.45L764.56,332.73L774.62,345.02L784.68,354.21L794.74,359.38L804.8,362.13L814.86,365.7L834.98,375.16L845.04,378.9L855.1,380.57L865.16,380.88L905.4,383.71L915.46,383.93L1006,385" style="vector-effect: none; fill: none; stroke: rgb(217, 83, 79); stroke-opacity: 1; stroke-width: 2px; opacity: 1;"/></g><g class="points"/><g class="text"/></g><g class="trace scatter tracec1c5e0" style="stroke-miterlimit: 2; opacity: 1;"><g class="fills"/><g class="errorbars"/><g class="lines"><path class="js-line" d="M0,385L130.78,384.53L140.84,384.12L160.96,382.17L171.02,379.12L191.14,370.95L201.2,364.33L221.32,342.77L231.38,326.8L251.5,282.32L261.56,258.56L291.74,168.97L301.8,135.84L311.86,112.61L321.92,93.56L331.98,74.45L342.04,58.17L352.1,49.51L362.16,46.1L372.22,35.38L382.28,34.59L392.34,39.56L402.4,38.05L412.46,35.24L422.52,35.05L432.58,36.54L442.64,36.65L452.7,36.92L462.76,34.42L482.88,20.84L492.94,26.69L503,30.71L513.06,36.48L523.12,56.88L533.18,68.76L553.3,68.24L563.36,66.2L573.42,65.51L583.48,62.24L593.54,63.7L603.6,69.42L623.72,70.3L633.78,77.64L643.84,91.11L653.9,106.01L674.02,126.74L684.08,150.38L714.26,243.5L724.32,269.89L734.38,289.02L744.44,304.48L764.56,338.43L774.62,349.78L784.68,355.67L794.74,360.28L804.8,366.47L814.86,371.36L824.92,374.44L834.98,376.31L865.16,381.43L875.22,382.47L905.4,384.23L915.46,384.34L1006,385" style="vector-effect: none; fill: none; stroke: rgb(240, 173, 78); stroke-opacity: 1; stroke-width: 2px; opacity: 1;"/></g><g class="points"/><g class="text"/></g></g></g></g><path class="xlines-above crisp" d="M0,0" style="fill: none;"/><path class="ylines-above crisp" d="M0,0" style="fill: none;"/><g class="overlines-above"/><g class="xaxislayer-above"><g class="xtick"><text text-anchor="middle" x="0" y="451" transform="translate(68,0)" style="font-family: 'Lucida Grande', 'Open Sans', verdana, arial, sans-serif; font-size: 10px; fill: rgb(0, 0, 0); fill-opacity: 1; white-space: pre; opacity: 1;">0%</text></g><g class="xtick"><text text-anchor="middle" x="0" y="451" style="font-family: 'Lucida Grande', 'Open Sans', verdana, arial, sans-serif; font-size: 10px; fill: rgb(0, 0, 0); fill-opacity: 1; white-space: pre; opacity: 1;" transform="translate(269.2,0)">20%</text></g><g class="xtick"><text text-anchor="middle" x="0" y="451" style="font-family: 'Lucida Grande', 'Open Sans', verdana, arial, sans-serif; font-size: 10px; fill: rgb(0, 0, 0); fill-opacity: 1; white-space: pre; opacity: 1;" transform="translate(470.4,0)">40%</text></g><g class="xtick"><text text-anchor="middle" x="0" y="451" style="font-family: 'Lucida Grande', 'Open Sans', verdana, arial, sans-serif; font-size: 10px; fill: rgb(0, 0, 0); fill-opacity: 1; white-space: pre; opacity: 1;" transform="translate(671.6,0)">60%</text></g><g class="xtick"><text text-anchor="middle" x="0" y="451" style="font-family: 'Lucida Grande', 'Open Sans', verdana, arial, sans-serif; font-size: 10px; fill: rgb(0, 0, 0); fill-opacity: 1; white-space: pre; opacity: 1;" transform="translate(872.8,0)">80%</text></g><g class="xtick"><text text-anchor="middle" x="0" y="451" style="font-family: 'Lucida Grande', 'Open Sans', verdana, arial, sans-serif; font-size: 10px; fill: rgb(0, 0, 0); fill-opacity: 1; white-space: pre; opacity: 1;" transform="translate(1074,0)">100%</text></g></g><g class="yaxislayer-above"><g class="ytick"><text text-anchor="end" x="62" y="3.5" transform="translate(0,435)" style="font-family: 'Lucida Grande', 'Open Sans', verdana, arial, sans-serif; font-size: 10px; fill: rgb(0, 0, 0); fill-opacity: 1; white-space: pre; opacity: 1;">0%</text></g><g class="ytick"><text text-anchor="end" x="62" y="3.5" style="font-family: 'Lucida Grande', 'Open Sans', verdana, arial, sans-serif; font-size: 10px; fill: rgb(0, 0, 0); fill-opacity: 1; white-space: pre; opacity: 1;" transform="translate(0,361.61)">0.5%</text></g><g class="ytick"><text text-anchor="end" x="62" y="3.5" style="font-family: 'Lucida Grande', 'Open Sans', verdana, arial, sans-serif; font-size: 10px; fill: rgb(0, 0, 0); fill-opacity: 1; white-space: pre; opacity: 1;" transform="translate(0,288.22)">1%</text></g><g class="ytick"><text text-anchor="end" x="62" y="3.5" style="font-family: 'Lucida Grande', 'Open Sans', verdana, arial, sans-serif; font-size: 10px; fill: rgb(0, 0, 0); fill-opacity: 1; white-space: pre; opacity: 1;" transform="translate(0,214.82)">1.5%</text></g><g class="ytick"><text text-anchor="end" x="62" y="3.5" style="font-family: 'Lucida Grande', 'Open Sans', verdana, arial, sans-serif; font-size: 10px; fill: rgb(0, 0, 0); fill-opacity: 1; white-space: pre; opacity: 1;" transform="translate(0,141.43)">2%</text></g><g class="ytick"><text text-anchor="end" x="62" y="3.5" style="font-family: 'Lucida Grande', 'Open Sans', verdana, arial, sans-serif; font-size: 10px; fill: rgb(0, 0, 0); fill-opacity: 1; white-space: pre; opacity: 1;" transform="translate(0,68.03999999999999)">2.5%</text></g></g><g class="overaxes-above"/></g></g><g class="polarlayer"/><g class="smithlayer"/><g class="ternarylayer"/><g class="geolayer"/><g class="funnelarealayer"/><g class="pielayer"/><g class="iciclelayer"/><g class="treemaplayer"/><g class="sunburstlayer"/><g class="glimages"/><defs id="topdefs-fda746"><g class="clips"/></defs><g class="layer-above"><g class="imagelayer"/><g class="shapelayer"/></g><g class="infolayer"><g class="g-gtitle"><text class="gtitle" x="550" y="25" text-anchor="middle" dy="0em" style="opacity: 1; font-family: 'Lucida Grande', 'Open Sans', verdana, arial, sans-serif; font-size: 20px; fill: rgb(42, 63, 95); fill-opacity: 1; white-space: pre;"><tspan class="line" dy="0em" x="550" y="25">FastQC: Per Sequence GC Content</tspan><tspan class="line" dy="1.3em" x="550" y="25">​<tspan style="font-size:70%" dy="-0.6em">Percentages, 4 samples</tspan><tspan dy="0.42em">​</tspan></tspan></text></g><g class="g-xtitle"><text class="xtitle" x="571" y="472.3" text-anchor="middle" style="opacity: 0.3; font-family: 'Lucida Grande', 'Open Sans', verdana, arial, sans-serif; font-size: 14px; fill: rgb(0, 0, 0); fill-opacity: 1; white-space: pre;">% GC</text></g><g class="g-ytitle"><text class="ytitle" transform="rotate(-90,22.19375,242.5)" x="22.19375" y="242.5" text-anchor="middle" style="opacity: 0.3; font-family: 'Lucida Grande', 'Open Sans', verdana, arial, sans-serif; font-size: 14px; fill: rgb(0, 0, 0); fill-opacity: 1; white-space: pre;">Percentage</text></g></g></svg>